<?xml version="1.0" encoding="utf-8"?>
<!-- Generator: Adobe Illustrator 19.0.0, SVG Export Plug-In . SVG Version: 6.00 Build 0)  -->
<svg version="1.1" id="Capa_1" xmlns="http://www.w3.org/2000/svg" xmlns:xlink="http://www.w3.org/1999/xlink" width="12.000000pt" height="12.000000pt" x="0px" y="0px"
	 viewBox="-49 141 20 20" style="enable-background:new -49 141 20 20;" xml:space="preserve">
<style type="text/css">
	.st0{fill:#FFFFFF;}
</style>
<g>
	<g>
		<path class="st0" d="M-29.1,159.1l-1.4-4c0.7-1.3,1-2.8,1-4.3c0-2.6-1-5-2.8-6.9c-1.8-1.8-4.2-2.9-6.8-2.9c-1.4,0-2.7,0.2-3.9,0.7
			c-1.2,0.5-2.3,1.2-3.2,2.1c-0.9,0.9-1.6,2-2.1,3.2c-0.5,1.2-0.8,2.5-0.7,3.9c0,2.6,1.1,5,2.9,6.8c1.8,1.8,4.3,2.8,6.8,2.8
			c0,0,0,0,0,0c1.5,0,3-0.4,4.3-1l4,1.4c0.2,0.1,0.3,0.1,0.5,0.1c0.4,0,0.7-0.1,1-0.4C-29,160.2-28.9,159.6-29.1,159.1z
			 M-30.3,159.7c0,0-0.1,0.1-0.2,0.1l-4.2-1.5c-0.1,0-0.1,0-0.2,0c-0.1,0-0.2,0-0.3,0.1c-1.2,0.6-2.6,1-4,1c-4.7,0-8.5-3.8-8.6-8.5
			c0-2.3,0.9-4.6,2.5-6.2c1.7-1.7,3.9-2.6,6.2-2.5c4.7,0.1,8.5,3.9,8.5,8.6c0,1.4-0.3,2.8-1,4c-0.1,0.1-0.1,0.3,0,0.5l1.5,4.2
			C-30.2,159.6-30.2,159.7-30.3,159.7z"/>
	</g>
</g>
<g>
	<g>
		<path class="st0" d="M-39.3,155.2c-0.3,0-0.6,0.3-0.6,0.6c0,0.3,0.3,0.6,0.6,0.6c0.3,0,0.6-0.3,0.6-0.6
			C-38.7,155.4-39,155.2-39.3,155.2z"/>
	</g>
</g>
<g>
	<g>
		<path class="st0" d="M-39.3,146c-1.6,0-2.9,1.3-2.9,2.9c0,0.3,0.3,0.6,0.6,0.6s0.6-0.3,0.6-0.6c0-1,0.8-1.8,1.8-1.8
			s1.8,0.8,1.8,1.8c0,1-0.8,1.8-1.8,1.8c-0.3,0-0.6,0.3-0.6,0.6v2.4c0,0.3,0.3,0.6,0.6,0.6s0.6-0.3,0.6-0.6v-1.9
			c1.3-0.3,2.4-1.5,2.4-2.9C-36.4,147.3-37.7,146-39.3,146z"/>
	</g>
</g>
</svg>
